<?xml version="1.0" encoding="UTF-8"?>
<svg version="1.1" xmlns="http://www.w3.org/2000/svg" width="500" height="500">
<path d="M0 0 C1.34384766 0.56847656 1.34384766 0.56847656 2.71484375 1.1484375 C4.82746782 2.06640358 6.91934623 3.01221488 9 4 C9 4.66 9 5.32 9 6 C9.5775 6.11730469 10.155 6.23460938 10.75 6.35546875 C23.5117678 10.01118349 34.51995069 24.26372069 41.02734375 35.28515625 C51.27566915 53.84937923 54.56787098 77.110403 49.3125 97.75 C45.15405017 111.92060604 37.51044258 127.55112326 28 139 C27.34 139 26.68 139 26 139 C26 139.99 26 140.98 26 142 C25.34 142 24.68 142 24 142 C23.91621094 142.53109375 23.83242188 143.0621875 23.74609375 143.609375 C22.7212147 146.89328065 20.96988875 149.39409062 19.0625 152.25 C18.35222656 153.32765625 17.64195312 154.4053125 16.91015625 155.515625 C16.27980469 156.33546875 15.64945313 157.1553125 15 158 C14.34 158 13.68 158 13 158 C12.79632813 158.64324219 12.59265625 159.28648437 12.3828125 159.94921875 C10.41451119 164.29171401 7.66006457 167.95799648 4.875 171.8125 C4.03001953 172.99489258 4.03001953 172.99489258 3.16796875 174.20117188 C1.78322342 176.13746831 0.39381373 178.07022641 -1 180 C0.17604797 180.00546844 0.17604797 180.00546844 1.37585449 180.01104736 C8.79057354 180.04902683 16.20479565 180.10599122 23.61919403 180.18390274 C27.43039081 180.22329188 31.24135952 180.25552186 35.05273438 180.27099609 C38.7359034 180.28621981 42.41844505 180.32076455 46.10133362 180.36830902 C47.50137354 180.38306439 48.90150306 180.39103764 50.30162048 180.39188385 C58.27235188 180.40153987 64.19393275 180.65924155 71 185 C71 185.66 71 186.32 71 187 C71.66 187 72.32 187 73 187 C76.64874187 193.62895047 78.70114644 200.28039601 80.6875 207.5625 C81.38732649 210.0666004 82.08787422 212.57049933 82.7890625 215.07421875 C83.15401511 216.38589277 83.51892352 217.6975791 83.88378906 219.00927734 C85.73418794 225.64336168 87.64554743 232.25989534 89.5625 238.875 C89.75034058 239.52446594 89.93818115 240.17393188 90.13171387 240.84307861 C92.86898595 250.294954 95.73245557 259.6996895 98.79321289 269.05224609 C104.12524399 285.40947298 104.12524399 285.40947298 100.4375 293.375 C99.963125 294.24125 99.48875 295.1075 99 296 C98.34 296 97.68 296 97 296 C97 296.66 97 297.32 97 298 C86.47455092 303.60863472 74.87809576 302.55586565 63.32177734 302.50170898 C61.01951264 302.50549592 58.71725021 302.51099904 56.41499329 302.51808167 C50.18580264 302.53200292 43.95688922 302.52089037 37.72771406 302.50437045 C31.19897735 302.49048569 24.67025617 302.49698381 18.14151001 302.50050354 C7.18153603 302.50393161 -3.77833426 302.48984345 -14.73828125 302.46655273 C-25.99971587 302.44262426 -37.26100546 302.43555425 -48.52246094 302.44604492 C-62.11889423 302.45868819 -75.71522576 302.45614997 -89.31165695 302.44038582 C-94.49565575 302.43463488 -99.67960601 302.43470167 -104.8636055 302.43945122 C-110.96878936 302.4442305 -117.07377304 302.43407962 -123.17891884 302.41249657 C-125.41659559 302.40694203 -127.65429162 302.40645112 -129.89196968 302.41144943 C-132.95160738 302.41742572 -136.01063784 302.40485193 -139.07022095 302.38768005 C-140.39120189 302.39669512 -140.39120189 302.39669512 -141.73886931 302.40589231 C-147.66180623 302.34564499 -152.49327589 301.13136428 -158 299 C-158.99 298.67 -159.98 298.34 -161 298 C-161 297.34 -161 296.68 -161 296 C-161.66 296 -162.32 296 -163 296 C-163.7104474 294.82608476 -164.39226744 293.63483071 -165.0625 292.4375 C-165.44535156 291.77621094 -165.82820313 291.11492187 -166.22265625 290.43359375 C-168.02818458 284.78111058 -165.46257088 278.58913288 -163.875 273.0625 C-163.65545654 272.28729004 -163.43591309 271.51208008 -163.2097168 270.71337891 C-162.47839462 268.1407236 -161.73932914 265.57036466 -161 263 C-160.74976074 262.12166504 -160.49952148 261.24333008 -160.24169922 260.33837891 C-157.42195587 250.44712331 -154.51505259 240.58640104 -151.43359375 230.7734375 C-151.21198074 230.06754486 -150.99036774 229.36165222 -150.76203918 228.6343689 C-149.66925033 225.15892744 -148.57062581 221.68545078 -147.46411133 218.21435547 C-145.29517596 211.37567586 -143.29984703 204.5502496 -141.70288086 197.55273438 C-140.64520508 193.71144991 -138.93618975 190.47178851 -137 187 C-136.34 187 -135.68 187 -135 187 C-135 186.34 -135 185.68 -135 185 C-127.56080472 180.20105483 -120.63470596 180.47761515 -112 180.609375 C-110.55412585 180.61684758 -109.10824147 180.6225357 -107.66235352 180.62652588 C-103.88099558 180.64170259 -100.1002651 180.68091345 -96.31915283 180.7253418 C-92.45113611 180.76646817 -88.58301671 180.78457371 -84.71484375 180.8046875 C-77.14294501 180.84741735 -69.57156086 180.91556948 -62 181 C-62.31965729 180.54786133 -62.63931458 180.09572266 -62.96865845 179.62988281 C-69.46511108 170.43903348 -75.94953758 161.24067517 -82.375 152 C-83.03371094 151.05511719 -83.69242187 150.11023438 -84.37109375 149.13671875 C-86.25462189 146.42938109 -88.12982183 143.71657317 -90 141 C-90.5971582 140.13632813 -91.19431641 139.27265625 -91.80957031 138.3828125 C-92.63473145 137.17238281 -92.63473145 137.17238281 -93.4765625 135.9375 C-93.96463379 135.22464844 -94.45270508 134.51179687 -94.95556641 133.77734375 C-96 132 -96 132 -96 130 C-96.66 130 -97.32 130 -98 130 C-112.05571986 106.51133037 -119.43595925 82.88958486 -112.97924805 55.4765625 C-109.91558655 44.03548174 -103.89433191 31.87578939 -96 23 C-95.34 23 -94.68 23 -94 23 C-94 22.34 -94 21.68 -94 21 C-93.34 21 -92.68 21 -92 21 C-92 20.34 -92 19.68 -92 19 C-91.34 19 -90.68 19 -90 19 C-90 18.34 -90 17.68 -90 17 C-89.34 17 -88.68 17 -88 17 C-87.77183594 16.40960938 -87.54367188 15.81921875 -87.30859375 15.2109375 C-84.66036543 10.73661742 -79.38084634 8.57598235 -75 6 C-73.63875 5.18595703 -73.63875 5.18595703 -72.25 4.35546875 C-51.01211643 -7.83779289 -22.65245461 -9.8550585 0 0 Z M-47.01171875 61.09375 C-52.12270634 67.31401887 -53.42601512 71.90571275 -53 80 C-52.25 83.08333333 -52.25 83.08333333 -51 86 C-50.608125 87.010625 -50.21625 88.02125 -49.8125 89.0625 C-46.9123484 93.7627457 -43.03504137 96.02671934 -38.125 98.375 C-30.68530062 99.86293988 -25.2061114 98.09603352 -19 94 C-18.01 93.34 -17.02 92.68 -16 92 C-16 91.34 -16 90.68 -16 90 C-15.34 90 -14.68 90 -14 90 C-9.73845024 80.69821099 -9.73845024 80.69821099 -10.73046875 70.74609375 C-13.86130048 62.98929839 -18.57218792 58.71390604 -26 55 C-34.39281728 54.13811136 -41.01262299 54.85003092 -47.01171875 61.09375 Z M-125 198 C-125.81104314 199.99884131 -125.81104314 199.99884131 -126.48046875 202.34765625 C-126.7539917 203.2507251 -127.02751465 204.15379395 -127.30932617 205.08422852 C-127.59912354 206.06705811 -127.8889209 207.0498877 -128.1875 208.0625 C-128.49212158 209.07948975 -128.79674316 210.09647949 -129.1105957 211.14428711 C-132.29266229 221.83958913 -135.28432961 232.58836658 -138.26269531 243.34179688 C-140.27936345 250.61248652 -142.33086034 257.8697653 -144.57421875 265.07421875 C-144.85064209 265.97035889 -145.12706543 266.86649902 -145.41186523 267.78979492 C-145.95743547 269.55395898 -146.50998007 271.31598624 -147.07055664 273.07543945 C-148.4328462 277.49157568 -149.44439737 281.31901441 -149 286 C-147.10482085 287.89517915 -144.32555319 287.12561875 -141.80341816 287.13374341 C-140.45476059 287.13039732 -140.45476059 287.13039732 -139.07885742 287.12698364 C-137.65755791 287.12932363 -137.65755791 287.12932363 -136.20754528 287.13171089 C-133.00683766 287.13572526 -129.80617679 287.13252956 -126.60546875 287.12939453 C-124.32125826 287.13074838 -122.03704799 287.13252822 -119.75283813 287.13470459 C-113.52988276 287.1392809 -107.30694387 287.13748856 -101.08398819 287.1343255 C-94.5874858 287.13180292 -88.09098487 287.13413916 -81.59448242 287.13571167 C-69.98245675 287.13765054 -58.37043863 287.13453269 -46.75841415 287.12945233 C-36.21947288 287.12498429 -25.68054263 287.12576022 -15.14160156 287.13037109 C-2.91742006 287.13571673 9.3067536 287.13771776 21.53093624 287.13475883 C28.00708722 287.13319559 34.4832306 287.13300357 40.9593811 287.13629532 C47.04627873 287.13917281 53.13315545 287.1372006 59.22005081 287.13140106 C61.46108592 287.1300728 63.70212277 287.13046868 65.9431572 287.13266373 C68.98841479 287.13537267 72.03360424 287.13199726 75.07885742 287.12698364 C75.97796247 287.12921436 76.87706751 287.13144509 77.80341816 287.13374341 C81.71518702 287.51039895 81.71518702 287.51039895 85 286 C85.50849811 280.50994411 83.96805096 275.96176881 82.3125 270.8125 C79.89808687 263.07202782 77.69964024 255.31210839 75.73754883 247.44458008 C74.84322035 243.92595524 73.86735006 240.53703247 72.5390625 237.15625 C70.5920515 232.14135274 69.36435412 226.96212093 68.0625 221.75 C65.45697218 207.89507174 65.45697218 207.89507174 59 196 C55.91155121 195.66394644 55.91155121 195.66394644 52.22705078 195.67773438 C51.18286484 195.66283966 51.18286484 195.66283966 50.11758423 195.64764404 C47.81012039 195.61838664 45.5029315 195.60479525 43.1953125 195.59375 C41.59349559 195.58224819 39.99167878 195.57073271 38.38986206 195.5592041 C35.02893794 195.53818012 31.66810955 195.52649753 28.30712891 195.51953125 C24.00013367 195.50856008 19.69440264 195.46050826 15.38780403 195.40358734 C12.07807725 195.366339 8.76865511 195.35592381 5.45873642 195.3528595 C3.87105267 195.34680404 2.28337445 195.33073802 0.69589615 195.30448914 C-1.52646743 195.27036587 -3.74574242 195.27412061 -5.96826172 195.28710938 C-7.23241913 195.27981812 -8.49657654 195.27252686 -9.79904175 195.26501465 C-13.86773864 195.81351838 -13.86773864 195.81351838 -17 202 C6.43 202 29.86 202 54 202 C54.99 205.63 55.98 209.26 57 213 C57.99 215.97 57.99 215.97 59 219 C50.09 219 41.18 219 32 219 C34.16126535 228.55944289 36.49233276 238.01417388 39.1875 247.4375 C39.44934082 248.35490967 39.71118164 249.27231934 39.98095703 250.2175293 C41.22327632 254.71055842 41.22327632 254.71055842 43 259 C52.24 259 61.48 259 71 259 C71.33 260.65 71.66 262.3 72 264 C72.64362925 266.21515732 73.31166048 268.4233258 74 270.625 C74.350625 271.75164062 74.70125 272.87828125 75.0625 274.0390625 C75.69316363 276.03090845 76.33930439 278.01791317 77 280 C42.35 280 7.7 280 -28 280 C-27.67 272.74 -27.34 265.48 -27 258 C-25.02 258 -23.04 258 -21 258 C-18.44369717 257.18209099 -18.44369717 257.18209099 -16.125 256 C-15.34382812 255.62875 -14.56265625 255.2575 -13.7578125 254.875 C-13.17773438 254.58625 -12.59765625 254.2975 -12 254 C-12 253.34 -12 252.68 -12 252 C-11.34 252 -10.68 252 -10 252 C-10 251.34 -10 250.68 -10 250 C-9.34 250 -8.68 250 -8 250 C-8 249.34 -8 248.68 -8 248 C-7.34 248 -6.68 248 -6 248 C-3.76225931 243.65615043 -3.90347743 240.72348183 -5 236 C-7.16237248 230.45892052 -12.02098274 227.82685199 -17 225 C-21.20092938 223.22268372 -23.30541391 223 -28 223 C-28 219.37 -28 215.74 -28 212 C-30.31 211.67 -32.62 211.34 -35 211 C-35 214.96 -35 218.92 -35 223 C-37.165625 223.061875 -37.165625 223.061875 -39.375 223.125 C-46.15878647 223.79083395 -52.15748223 226.82306838 -56.7265625 231.9296875 C-58.89571805 235.45622874 -59.20799923 238.90934844 -59 243 C-56.23497954 250.09287856 -50.97798464 253.96475204 -44.3125 257.375 C-41.78166507 258.05900944 -39.61014701 258.14915126 -37 258 C-35.30032683 264.79869268 -36 271.99206799 -36 279 C-87.48 279.495 -87.48 279.495 -140 280 C-138.02 273.4 -136.04 266.8 -134 260 C-125.09 259.67 -116.18 259.34 -107 259 C-105.17973837 254.14596898 -103.53899797 249.68434005 -102.2109375 244.7421875 C-101.90929687 243.62199219 -101.60765625 242.50179687 -101.296875 241.34765625 C-100.99265625 240.20167969 -100.6884375 239.05570313 -100.375 237.875 C-100.06304687 236.72128906 -99.75109375 235.56757813 -99.4296875 234.37890625 C-98.05294619 229.23392902 -96.87794626 224.26767757 -96 219 C-104.91 219 -113.82 219 -123 219 C-120.5 211.625 -120.5 211.625 -119.70898438 209.30712891 C-118.43979425 205.73303588 -118.43979425 205.73303588 -118 202 C-94.57 202 -71.14 202 -47 202 C-48.33563616 197.05536365 -48.33563616 197.05536365 -51 196 C-53.26643536 195.89763332 -55.5359518 195.86155327 -57.8046875 195.85473633 C-58.85369232 195.84969841 -58.85369232 195.84969841 -59.92388916 195.84455872 C-62.24094405 195.83504153 -64.55792677 195.83310535 -66.875 195.83203125 C-68.48160838 195.82881966 -70.08821646 195.82545567 -71.69482422 195.82194519 C-75.06413451 195.81595232 -78.43341913 195.8141055 -81.80273438 195.81469727 C-86.1273767 195.814799 -90.45185527 195.80113565 -94.77645874 195.78392506 C-98.09465293 195.77282686 -101.41280722 195.77077737 -104.73101807 195.77130699 C-106.32587245 195.770124 -107.92072778 195.76568449 -109.51556396 195.75797462 C-111.74226489 195.74821667 -113.96860623 195.75103569 -116.1953125 195.75708008 C-118.09821045 195.75494255 -118.09821045 195.75494255 -120.03955078 195.75276184 C-123.1196623 195.68912532 -123.1196623 195.68912532 -125 198 Z " fill="#234D3C" transform="translate(282,102)"/>
<path d="M0 0 C3.31347122 3.14134285 6.30243537 6.39219369 9.10546875 9.99609375 C9.89050781 10.97449219 9.89050781 10.97449219 10.69140625 11.97265625 C21.25953973 26.29596407 22.72806408 45.39011089 20.6796875 62.56640625 C17.44258768 78.73204585 7.4665406 91.84224825 -1.89453125 104.99609375 C-2.3529541 105.6411084 -2.81137695 106.28612305 -3.28369141 106.95068359 C-4.9259317 109.2572989 -6.57160454 111.56133734 -8.22583008 113.859375 C-11.82499378 118.86488264 -15.31092341 123.94464003 -18.78735352 129.03588867 C-21.38075058 132.82469042 -24.01907117 136.57294424 -26.71679688 140.28808594 C-31.32787028 146.63829648 -35.58939833 153.14037962 -39.67211914 159.84375 C-41.26981029 162.45821323 -42.71903975 164.82060225 -44.89453125 166.99609375 C-45.25168213 166.44260254 -45.60883301 165.88911133 -45.97680664 165.31884766 C-48.83747377 160.88981413 -51.7045417 156.46500012 -54.58203125 152.046875 C-55.12988281 151.20552002 -55.67773438 150.36416504 -56.2421875 149.49731445 C-59.0376995 145.26563294 -61.94289014 141.11971001 -64.89453125 136.99609375 C-65.80691608 135.70377862 -66.71827543 134.4107392 -67.62890625 133.1171875 C-71.94364608 126.98897603 -76.26209124 120.86414241 -80.63989258 114.78076172 C-82.27694516 112.50169486 -83.90322455 110.21511724 -85.52587891 107.92578125 C-86.50232169 106.54907704 -87.48146038 105.17428329 -88.46240234 103.80078125 C-103.50957429 82.65961515 -114.22368132 63.04950863 -110.20703125 36.24609375 C-107.17854705 22.06340365 -99.79237749 11.24743449 -89.89453125 0.99609375 C-89.00507813 0.05056641 -89.00507813 0.05056641 -88.09765625 -0.9140625 C-63.74715724 -24.5642153 -24.52719973 -21.07613645 0 0 Z M-59.90625 33.08984375 C-65.01723759 39.31011262 -66.32054637 43.9018065 -65.89453125 51.99609375 C-65.14453125 55.07942708 -65.14453125 55.07942708 -63.89453125 57.99609375 C-63.50265625 59.00671875 -63.11078125 60.01734375 -62.70703125 61.05859375 C-59.80687965 65.75883945 -55.92957262 68.02281309 -51.01953125 70.37109375 C-43.57983187 71.85903363 -38.10064265 70.09212727 -31.89453125 65.99609375 C-30.90453125 65.33609375 -29.91453125 64.67609375 -28.89453125 63.99609375 C-28.89453125 63.33609375 -28.89453125 62.67609375 -28.89453125 61.99609375 C-28.23453125 61.99609375 -27.57453125 61.99609375 -26.89453125 61.99609375 C-22.63298149 52.69430474 -22.63298149 52.69430474 -23.625 42.7421875 C-26.75583173 34.98539214 -31.46671917 30.70999979 -38.89453125 26.99609375 C-47.28734853 26.13420511 -53.90715424 26.84612467 -59.90625 33.08984375 Z " fill="#4D9644" transform="translate(294.89453125,130.00390625)"/>
<path d="M0 0 C3.66639248 -0.11728126 7.3322952 -0.18760891 11 -0.25 C12.02996094 -0.28351563 13.05992187 -0.31703125 14.12109375 -0.3515625 C20.92398736 -0.43822357 25.17438809 0.44301581 31 4 C31 4.66 31 5.32 31 6 C31.66 6 32.32 6 33 6 C36.64874187 12.62895047 38.70114644 19.28039601 40.6875 26.5625 C41.38732649 29.0666004 42.08787422 31.57049933 42.7890625 34.07421875 C43.15401511 35.38589277 43.51892352 36.6975791 43.88378906 38.00927734 C45.73418794 44.64336168 47.64554743 51.25989534 49.5625 57.875 C49.75034058 58.52446594 49.93818115 59.17393188 50.13171387 59.84307861 C52.86898595 69.294954 55.73245557 78.6996895 58.79321289 88.05224609 C64.12524399 104.40947298 64.12524399 104.40947298 60.4375 112.375 C59.963125 113.24125 59.48875 114.1075 59 115 C58.34 115 57.68 115 57 115 C57 115.66 57 116.32 57 117 C46.47455092 122.60863472 34.87809576 121.55586565 23.32177734 121.50170898 C21.01951264 121.50549592 18.71725021 121.51099904 16.41499329 121.51808167 C10.18580264 121.53200292 3.95688922 121.52089037 -2.27228594 121.50437045 C-8.80102265 121.49048569 -15.32974383 121.49698381 -21.85848999 121.50050354 C-32.81846397 121.50393161 -43.77833426 121.48984345 -54.73828125 121.46655273 C-65.99971587 121.44262426 -77.26100546 121.43555425 -88.52246094 121.44604492 C-102.11889423 121.45868819 -115.71522576 121.45614997 -129.31165695 121.44038582 C-134.49565575 121.43463488 -139.67960601 121.43470167 -144.8636055 121.43945122 C-150.96878936 121.4442305 -157.07377304 121.43407962 -163.17891884 121.41249657 C-165.41659559 121.40694203 -167.65429162 121.40645112 -169.89196968 121.41144943 C-172.95160738 121.41742572 -176.01063784 121.40485193 -179.07022095 121.38768005 C-179.95087491 121.3936901 -180.83152887 121.39970014 -181.73886931 121.40589231 C-187.66180623 121.34564499 -192.49327589 120.13136428 -198 118 C-198.99 117.67 -199.98 117.34 -201 117 C-201 116.34 -201 115.68 -201 115 C-201.66 115 -202.32 115 -203 115 C-203.7104474 113.82608476 -204.39226744 112.63483071 -205.0625 111.4375 C-205.63677734 110.44556641 -205.63677734 110.44556641 -206.22265625 109.43359375 C-208.02820014 103.78106188 -205.46249749 97.58918005 -203.875 92.0625 C-203.65618164 91.28946533 -203.43736328 90.51643066 -203.21191406 89.7199707 C-202.48019965 87.14501594 -201.74050768 84.57243877 -201 82 C-200.74444336 81.10571289 -200.48888672 80.21142578 -200.22558594 79.29003906 C-195.40711054 62.44606802 -190.24000549 45.71649414 -185 29 C-184.34 29.99 -183.68 30.98 -183 32 C-181.515 32.495 -181.515 32.495 -180 33 C-179.67 32.67 -179.34 32.34 -179 32 C-179 31.34 -179 30.68 -179 30 C-177.02 30 -175.04 30 -173 30 C-173 30.99 -173 31.98 -173 33 C-171.02 32.505 -171.02 32.505 -169 32 C-171.16740541 42.41875582 -174.19190719 52.50249155 -177.29638672 62.67138672 C-178.56159447 66.858601 -179.73879147 71.07027474 -180.921875 75.28125 C-181.77692868 78.23056558 -182.66500782 81.16227687 -183.578125 84.09375 C-183.85398438 84.98707031 -184.12984375 85.88039063 -184.4140625 86.80078125 C-184.95912801 88.5607825 -185.51089882 90.31872534 -186.0703125 92.07421875 C-186.32039063 92.88503906 -186.57046875 93.69585937 -186.828125 94.53125 C-187.0540332 95.24861328 -187.27994141 95.96597656 -187.51269531 96.70507812 C-188.2077094 99.58717579 -188.2077094 99.58717579 -188 105 C-111.44 105 -34.88 105 44 105 C44.04212457 99.57913733 44.04212457 99.57913733 42.86328125 94.70703125 C42.61811768 93.92102539 42.3729541 93.13501953 42.12036133 92.32519531 C41.72046997 91.08141113 41.72046997 91.08141113 41.3125 89.8125 C38.89808687 82.07202782 36.69964024 74.31210839 34.73754883 66.44458008 C33.84322035 62.92595524 32.86735006 59.53703247 31.5390625 56.15625 C29.59206809 51.14139547 28.3640443 45.96216524 27.0625 40.75 C24.7055506 27.5290357 24.7055506 27.5290357 19 16 C16.76142644 15.87588418 14.51894516 15.82196977 12.27709961 15.79467773 C11.5746965 15.78477814 10.8722934 15.77487854 10.14860535 15.76467896 C7.81655296 15.73297878 5.48448016 15.70827312 3.15234375 15.68359375 C1.53950965 15.66303156 -0.07331896 15.64203529 -1.68614197 15.62062073 C-5.93909275 15.56532408 -10.19209277 15.51594844 -14.44512939 15.46777344 C-18.78182375 15.41761369 -23.11844627 15.36189885 -27.45507812 15.30664062 C-35.96999141 15.19896625 -44.48496465 15.09754205 -53 15 C-53 14.67 -53 14.34 -53 14 C-32.21 13.67 -11.42 13.34 10 13 C9.01 12.01 8.02 11.02 7 10 C6.64830932 8.67139075 6.31229724 7.33841672 6 6 C5.01 5.505 5.01 5.505 4 5 C4 4.01 4 3.02 4 2 C2.02 1.01 2.02 1.01 0 0 Z " fill="#274E3F" transform="translate(322,283)"/>
<path d="M0 0 C0 0.66 0 1.32 0 2 C1.32 2.33 2.64 2.66 4 3 C4 3.66 4 4.32 4 5 C4.66 5 5.32 5 6 5 C6 8.96 6 12.92 6 17 C3.2775 17.5878125 3.2775 17.5878125 0.5 18.1875 C-6.6466584 20.00158684 -12.06657274 21.89479864 -16.0625 28.3125 C-17.23776325 32.93520213 -17.12301726 35.35819531 -16 40 C-12.354332 45.94108859 -7.33613342 48.73484032 -0.75 50.5 C0.10078125 50.6959375 0.9515625 50.891875 1.828125 51.09375 C4 52 4 52 5.28515625 53.55078125 C6.36730679 57.25847735 6.24835318 60.84734384 6.1875 64.6875 C6.1865332 65.8640918 6.1865332 65.8640918 6.18554688 67.06445312 C6.14046848 72.85953152 6.14046848 72.85953152 5 74 C3.6465941 74.09531163 2.28826016 74.1218872 0.9315033 74.12025452 C-0.38316673 74.12231651 -0.38316673 74.12231651 -1.72439575 74.12442017 C-3.17771805 74.11902725 -3.17771805 74.11902725 -4.66040039 74.11352539 C-5.67491776 74.11367142 -6.68943512 74.11381744 -7.73469543 74.1139679 C-11.10570373 74.11326829 -14.47665754 74.10547368 -17.84765625 74.09765625 C-20.17793243 74.09579224 -22.508209 74.09436826 -24.83848572 74.09336853 C-30.98537265 74.08954202 -37.13223613 74.0797106 -43.27911377 74.06866455 C-49.54609866 74.05845329 -55.81308732 74.05387152 -62.08007812 74.04882812 C-74.38672908 74.03808845 -86.69336259 74.02101044 -99 74 C-98.68424269 72.56758311 -98.3677811 71.13532145 -98.05102539 69.703125 C-97.87487198 68.90551758 -97.69871857 68.10791016 -97.51722717 67.28613281 C-96.88809612 64.5053873 -96.18399305 61.75147175 -95.4375 59 C-95.18871094 58.071875 -94.93992188 57.14375 -94.68359375 56.1875 C-94 54 -94 54 -93 53 C-91.00217874 52.84174742 -88.99911166 52.74880829 -86.99609375 52.68359375 C-85.78115234 52.64169922 -84.56621094 52.59980469 -83.31445312 52.55664062 C-82.03505859 52.51732422 -80.75566406 52.47800781 -79.4375 52.4375 C-78.15423828 52.39431641 -76.87097656 52.35113281 -75.54882812 52.30664062 C-72.36600147 52.200152 -69.18309326 52.09814038 -66 52 C-65.80889648 51.28046143 -65.61779297 50.56092285 -65.42089844 49.81958008 C-58.67556971 24.46777751 -58.67556971 24.46777751 -55 13 C-63.91 13 -72.82 13 -82 13 C-79 0 -79 0 -77 -4 C-67.84690895 -4.2468676 -58.6936907 -4.46605974 -49.53912163 -4.65021229 C-45.28798676 -4.73659174 -41.03750539 -4.8323929 -36.78710938 -4.94995117 C-32.68306533 -5.06311119 -28.57916859 -5.15122735 -24.47418594 -5.22220421 C-22.91034722 -5.2536051 -21.34666081 -5.29393667 -19.78329086 -5.34345436 C-17.58817797 -5.41143616 -15.39466218 -5.44725287 -13.19873047 -5.47583008 C-11.95074677 -5.50469803 -10.70276306 -5.53356598 -9.41696167 -5.56330872 C-4.85119378 -4.8106117 -3.21674573 -3.27373873 0 0 Z " fill="#519648" transform="translate(241,308)"/>
<path d="M0 0 C1.62808093 0.01306639 3.2561895 0.02302565 4.88430786 0.03001404 C9.156096 0.05665878 13.42620073 0.12534679 17.69732666 0.20294189 C22.06100696 0.27473065 26.42496107 0.30655868 30.7890625 0.34179688 C39.3419158 0.41672432 47.89340437 0.53609104 56.4453125 0.68359375 C57.09787706 2.38936717 57.74204291 4.09835464 58.3828125 5.80859375 C58.92228516 7.23558594 58.92228516 7.23558594 59.47265625 8.69140625 C60.4453125 11.68359375 60.4453125 11.68359375 61.4453125 17.68359375 C52.5353125 17.68359375 43.6253125 17.68359375 34.4453125 17.68359375 C35.4353125 19.66359375 35.4353125 19.66359375 36.4453125 21.68359375 C37.09419384 24.0467686 37.69182187 26.42420767 38.2578125 28.80859375 C39.96575427 35.89406481 41.86592997 42.91128397 43.87036133 49.91845703 C45.4453125 55.47747196 45.4453125 55.47747196 45.4453125 57.68359375 C54.6853125 57.68359375 63.9253125 57.68359375 73.4453125 57.68359375 C74.4353125 60.59171875 75.4253125 63.49984375 76.4453125 66.49609375 C76.75855469 67.4085083 77.07179688 68.32092285 77.39453125 69.26098633 C77.63816406 69.98439209 77.88179688 70.70779785 78.1328125 71.453125 C78.38417969 72.19151611 78.63554687 72.92990723 78.89453125 73.69067383 C79.4453125 75.68359375 79.4453125 75.68359375 79.4453125 78.68359375 C44.7953125 78.68359375 10.1453125 78.68359375 -25.5546875 78.68359375 C-25.5546875 58.68359375 -25.5546875 58.68359375 -24.5546875 56.68359375 C-22.23529543 55.96993465 -19.89945301 55.30886455 -17.5546875 54.68359375 C-16.6471875 54.31234375 -15.7396875 53.94109375 -14.8046875 53.55859375 C-12.5546875 52.68359375 -12.5546875 52.68359375 -9.5546875 52.68359375 C-9.5546875 52.02359375 -9.5546875 51.36359375 -9.5546875 50.68359375 C-8.8946875 50.68359375 -8.2346875 50.68359375 -7.5546875 50.68359375 C-7.5546875 50.02359375 -7.5546875 49.36359375 -7.5546875 48.68359375 C-6.8946875 48.68359375 -6.2346875 48.68359375 -5.5546875 48.68359375 C-5.5546875 48.02359375 -5.5546875 47.36359375 -5.5546875 46.68359375 C-4.8946875 46.68359375 -4.2346875 46.68359375 -3.5546875 46.68359375 C-2.7952946 42.05404185 -2.19797537 38.00852452 -3.4296875 33.43359375 C-9.1369684 26.04770082 -16.73422151 23.69332018 -25.5546875 21.68359375 C-25.5546875 18.05359375 -25.5546875 14.42359375 -25.5546875 10.68359375 C-27.5346875 10.68359375 -29.5146875 10.68359375 -31.5546875 10.68359375 C-31.5546875 10.35359375 -31.5546875 10.02359375 -31.5546875 9.68359375 C-30.97460938 9.62042969 -30.39453125 9.55726563 -29.796875 9.4921875 C-29.01570312 9.36972656 -28.23453125 9.24726563 -27.4296875 9.12109375 C-26.28113281 8.96447266 -26.28113281 8.96447266 -25.109375 8.8046875 C-22.15054736 7.50624173 -22.02375838 6.81620708 -20.4296875 4.15625 C-15.46885075 -1.7240461 -7.02407048 -0.16533783 0 0 Z " fill="#519648" transform="translate(279.5546875,303.31640625)"/>
<path d="M0 0 C8.93602083 7.42806731 14.83881129 16.35653936 16.16015625 27.984375 C16.63542369 39.92699278 13.27385213 49.24637744 5.640625 58.40625 C-2.18469345 66.55492871 -10.67342762 70.44783889 -21.9375 70.6875 C-33.14095186 70.58213838 -41.27800319 66.26150811 -49.16015625 58.4921875 C-56.75516164 50.26829632 -60.88540574 40.78752207 -60.62109375 29.46875 C-59.23420405 17.9064696 -53.91917405 8.04500176 -45.0859375 0.53515625 C-31.5963169 -9.2126438 -13.80116907 -9.48830373 0 0 Z M-37.26171875 16.46875 C-42.37270634 22.68901887 -43.67601512 27.28071275 -43.25 35.375 C-42.5 38.45833333 -42.5 38.45833333 -41.25 41.375 C-40.858125 42.385625 -40.46625 43.39625 -40.0625 44.4375 C-37.1623484 49.1377457 -33.28504137 51.40171934 -28.375 53.75 C-20.93530062 55.23793988 -15.4561114 53.47103352 -9.25 49.375 C-8.26 48.715 -7.27 48.055 -6.25 47.375 C-6.25 46.715 -6.25 46.055 -6.25 45.375 C-5.59 45.375 -4.93 45.375 -4.25 45.375 C0.01154976 36.07321099 0.01154976 36.07321099 -0.98046875 26.12109375 C-4.11130048 18.36429839 -8.82218792 14.08890604 -16.25 10.375 C-24.64281728 9.51311136 -31.26262299 10.22503092 -37.26171875 16.46875 Z " fill="#214D3A" transform="translate(272.25,146.625)"/>
<path d="M0 0 C3.66639248 -0.11728126 7.3322952 -0.18760891 11 -0.25 C12.02996094 -0.28351563 13.05992187 -0.31703125 14.12109375 -0.3515625 C20.92398736 -0.43822357 25.17438809 0.44301581 31 4 C31 4.66 31 5.32 31 6 C31.66 6 32.32 6 33 6 C36.64864715 12.62877838 38.70194611 19.28025983 40.6875 26.5625 C41.3792386 29.04584324 42.07198683 31.52890542 42.765625 34.01171875 C42.94411484 34.65437683 43.12260468 35.29703491 43.3065033 35.95916748 C44.66030699 40.82423664 46.06155403 45.6742313 47.484375 50.51953125 C47.68976395 51.22004105 47.89515289 51.92055084 48.10676575 52.64228821 C48.91406873 55.39416077 49.72193208 58.14585218 50.53500366 60.89602661 C51.09806322 62.80216348 51.6565379 64.70965285 52.21484375 66.6171875 C52.53573975 67.70628418 52.85663574 68.79538086 53.18725586 69.91748047 C53.98271542 72.93444425 54.53942162 75.91577496 55 79 C54.67 78.01 54.34 77.02 54 76 C53.34 76 52.68 76 52 76 C51.67 75.01 51.34 74.02 51 73 C50.34 72.34 49.68 71.68 49 71 C49.66 71 50.32 71 51 71 C50.67 69.68 50.34 68.36 50 67 C49.67 67.66 49.34 68.32 49 69 C47 69.33333333 45 69.66666667 43 70 C42.67 70.66 42.34 71.32 42 72 C41.34 72.66 40.68 73.32 40 74 C39.01 74 38.02 74 37 74 C36.74605469 73.0821875 36.49210937 72.164375 36.23046875 71.21875 C35.88628906 69.9915625 35.54210937 68.764375 35.1875 67.5 C34.85105469 66.2934375 34.51460938 65.086875 34.16796875 63.84375 C33.41326355 61.2484376 32.53607908 58.74907146 31.546875 56.234375 C29.61262987 51.18883699 28.36996663 45.98588183 27.0625 40.75 C24.7055506 27.5290357 24.7055506 27.5290357 19 16 C16.76142644 15.87588418 14.51894516 15.82196977 12.27709961 15.79467773 C11.5746965 15.78477814 10.8722934 15.77487854 10.14860535 15.76467896 C7.81655296 15.73297878 5.48448016 15.70827312 3.15234375 15.68359375 C1.53950965 15.66303156 -0.07331896 15.64203529 -1.68614197 15.62062073 C-5.93909275 15.56532408 -10.19209277 15.51594844 -14.44512939 15.46777344 C-18.78182375 15.41761369 -23.11844627 15.36189885 -27.45507812 15.30664062 C-35.96999141 15.19896625 -44.48496465 15.09754205 -53 15 C-53 14.67 -53 14.34 -53 14 C-32.21 13.67 -11.42 13.34 10 13 C9.01 12.01 8.02 11.02 7 10 C6.64830932 8.67139075 6.31229724 7.33841672 6 6 C5.34 5.67 4.68 5.34 4 5 C4 4.01 4 3.02 4 2 C2.68 1.34 1.36 0.68 0 0 Z " fill="#254E3E" transform="translate(322,283)"/>
<path d="M0 0 C6.93 0 13.86 0 21 0 C19.99770853 6.09084815 18.9179023 11.84221062 16.78125 17.63671875 C15.65863157 21.03263951 14.86746927 24.53012291 14 28 C7.07 28 0.14 28 -7 28 C-5.75571505 21.77857524 -4.49017622 15.63986036 -2.9375 9.5 C-2.76412109 8.79875 -2.59074219 8.0975 -2.41210938 7.375 C-1.12687017 2.25374035 -1.12687017 2.25374035 0 0 Z " fill="#519448" transform="translate(157,327)"/>
<path d="M0 0 C6.6 0 13.2 0 20 0 C23.37481259 8.99950025 23.37481259 8.99950025 24.1328125 12.140625 C24.29910156 12.81867188 24.46539062 13.49671875 24.63671875 14.1953125 C24.79785156 14.87335938 24.95898438 15.55140625 25.125 16.25 C25.29386719 16.94351562 25.46273438 17.63703125 25.63671875 18.3515625 C26.09459434 20.23353934 26.54752313 22.11671787 27 24 C27.33 25.32 27.66 26.64 28 28 C21.07 28 14.14 28 7 28 C5.19260365 24.3852073 4.34423531 21.59208832 3.5 17.6875 C2.70018345 14.06599563 1.89953175 10.48384472 0.8125 6.9375 C0 4 0 4 0 0 Z " fill="#599951" transform="translate(323,327)"/>
<path d="M0 0 C3.66639248 -0.11728126 7.3322952 -0.18760891 11 -0.25 C12.02996094 -0.28351563 13.05992187 -0.31703125 14.12109375 -0.3515625 C20.92398736 -0.43822357 25.17438809 0.44301581 31 4 C31 4.66 31 5.32 31 6 C31.66 6 32.32 6 33 6 C36.07692308 11.41538462 36.07692308 11.41538462 35.6875 14.375 C35.460625 14.91125 35.23375 15.4475 35 16 C34.34 16 33.68 16 33 16 C33 16.66 33 17.32 33 18 C31.515 18.495 31.515 18.495 30 19 C28.79117904 21.00016466 28.79117904 21.00016466 28 23 C28.66 23.33 29.32 23.66 30 24 C28.68 23.67 27.36 23.34 26 23 C25.01 24.485 25.01 24.485 24 26 C22.35 22.7 20.7 19.4 19 16 C-4.76 15.67 -28.52 15.34 -53 15 C-53 14.67 -53 14.34 -53 14 C-32.21 13.67 -11.42 13.34 10 13 C9.01 12.01 8.02 11.02 7 10 C6.64830932 8.67139075 6.31229724 7.33841672 6 6 C5.34 5.67 4.68 5.34 4 5 C4 4.01 4 3.02 4 2 C2.68 1.34 1.36 0.68 0 0 Z " fill="#365A4B" transform="translate(322,283)"/>
<path d="M0 0 C0 8.25 0 16.5 0 25 C-3.47871621 26.15957207 -4.34219645 25.77456651 -7.6875 24.5625 C-8.89986328 24.13130859 -8.89986328 24.13130859 -10.13671875 23.69140625 C-10.75160156 23.46324219 -11.36648437 23.23507812 -12 23 C-12 22.34 -12 21.68 -12 21 C-12.66 21 -13.32 21 -14 21 C-14 20.34 -14 19.68 -14 19 C-14.66 19 -15.32 19 -16 19 C-18.09972674 15.58794404 -18.33083127 12.9699753 -18 9 C-16.7256466 5.74472102 -15.30036109 4.13808166 -12.375 2.25 C-11.74335938 1.82203125 -11.11171875 1.3940625 -10.4609375 0.953125 C-8 0 -8 0 0 0 Z " fill="#499040" transform="translate(247,330)"/>
<path d="M0 0 C9.02359882 0 9.02359882 0 11.875 2.3125 C12.42929687 2.74175781 12.98359375 3.17101562 13.5546875 3.61328125 C15.68086418 5.65326158 16.93870177 7.29016645 17.1953125 10.26171875 C17.17210937 11.06222656 17.14890625 11.86273438 17.125 12.6875 C17.10695313 13.49574219 17.08890625 14.30398438 17.0703125 15.13671875 C17.04710937 15.75160156 17.02390625 16.36648438 17 17 C16.34 17 15.68 17 15 17 C14.34 18.32 13.68 19.64 13 21 C12.34 21 11.68 21 11 21 C11 21.66 11 22.32 11 23 C6.97066275 25.57877584 5.48465565 25 0 25 C0 16.75 0 8.5 0 0 Z " fill="#55964C" transform="translate(254,330)"/>
<path d="M0 0 C5.94 0 11.88 0 18 0 C17.67 0.66 17.34 1.32 17 2 C17.39938767 4.09821215 17.39938767 4.09821215 18 6 C15.6875 7.125 15.6875 7.125 13 8 C12.01 7.34 11.02 6.68 10 6 C10.2784375 7.175625 10.2784375 7.175625 10.5625 8.375 C11 11 11 11 10 13 C9.34 13 8.68 13 8 13 C7.67 14.32 7.34 15.64 7 17 C5.68 17 4.36 17 3 17 C2.63631108 15.39796533 2.28438048 13.79325797 1.9375 12.1875 C1.74027344 11.29417969 1.54304688 10.40085937 1.33984375 9.48046875 C0.92625315 6.4617328 1.65475789 4.69048421 3 2 C2.01 2 1.02 2 0 2 C0 1.34 0 0.68 0 0 Z " fill="#4D9245" transform="translate(324,328)"/>
<path d="M0 0 C1.0828125 0.433125 1.0828125 0.433125 2.1875 0.875 C3.425 1.225625 4.6625 1.57625 5.9375 1.9375 C7.01 2.246875 8.0825 2.55625 9.1875 2.875 C8.8575 4.195 8.5275 5.515 8.1875 6.875 C7.23875 6.978125 6.29 7.08125 5.3125 7.1875 C1.89642499 7.56039295 1.89642499 7.56039295 0.1875 10.875 C-1.7925 10.215 -3.7725 9.555 -5.8125 8.875 C-6.18260337 5.5440697 -6.08711204 4.24768777 -4.0625 1.5 C-1.8125 -0.125 -1.8125 -0.125 0 0 Z " fill="#1F4838" transform="translate(358.8125,327.125)"/>
<path d="M0 0 C0 2.79784711 -0.37195775 4.9790678 -1 7.6875 C-1.185625 8.49574219 -1.37125 9.30398438 -1.5625 10.13671875 C-1.706875 10.75160156 -1.85125 11.36648438 -2 12 C0.31 12.33 2.62 12.66 5 13 C5 13.99 5 14.98 5 16 C8.465 15.505 8.465 15.505 12 15 C12.33 17.31 12.66 19.62 13 22 C8.94393835 21.53199289 5.53411321 21.12046792 2 19 C2 18.34 2 17.68 2 17 C1.34 17 0.68 17 0 17 C0 16.34 0 15.68 0 15 C-0.66 15 -1.32 15 -2 15 C-4.09972674 11.58794404 -4.33083127 8.9699753 -4 5 C-2.6 1.3 -2.6 1.3 0 0 Z " fill="#6AA162" transform="translate(233,334)"/>
<path d="M0 0 C8.5670721 -0.24418225 16.1169066 0.53364642 24.359375 3.15625 C20.51031958 4.54190995 17.33138379 3.81825147 13.359375 3.15625 C3.76082485 1.71997914 -4.88908149 1.68737672 -13.640625 6.15625 C-14.630625 6.48625 -15.620625 6.81625 -16.640625 7.15625 C-17.630625 6.49625 -18.620625 5.83625 -19.640625 5.15625 C-13.03368217 1.37834386 -7.53673743 0.32346513 0 0 Z " fill="#519350" transform="translate(245.640625,112.84375)"/>
<path d="M0 0 C1.32 0.99 2.64 1.98 4 3 C2.87548273 5.9719385 1.77706209 8.33440687 0 11 C-0.38499891 12.65549531 -0.72793135 14.3222433 -1 16 C-2.66666667 16 -4.33333333 16 -6 16 C-6.8125 14.375 -6.8125 14.375 -7 12 C-5.79541727 10.50241066 -4.58124927 9.00930476 -3.28125 7.59375 C-1.43107323 5.2923106 -0.73987681 2.8249842 0 0 Z " fill="#315446" transform="translate(231,159)"/>
<path d="M0 0 C0.41378906 0.95132813 0.41378906 0.95132813 0.8359375 1.921875 C2.3895534 4.69544432 4.04257982 5.06607784 7 6 C5.68 6.33 4.36 6.66 3 7 C3 7.66 3 8.32 3 9 C2.34 8.67 1.68 8.34 1 8 C1.33 7.34 1.66 6.68 2 6 C1.01 6.66 0.02 7.32 -1 8 C-0.67 9.65 -0.34 11.3 0 13 C-0.78375 13.0825 -1.5675 13.165 -2.375 13.25 C-5.14749104 13.72806339 -5.14749104 13.72806339 -6.3125 16.0625 C-6.539375 16.701875 -6.76625 17.34125 -7 18 C-7.66 18 -8.32 18 -9 18 C-7.65072455 13.46152802 -5.80840652 9.68067754 -3.375 5.625 C-2.74335938 4.56539062 -2.11171875 3.50578125 -1.4609375 2.4140625 C-0.73777344 1.21910156 -0.73777344 1.21910156 0 0 Z " fill="#3E5E50" transform="translate(182,130)"/>
<path d="M0 0 C0 8.25 0 16.5 0 25 C-0.33 25 -0.66 25 -1 25 C-1 17.08 -1 9.16 -1 1 C-1.33 2.65 -1.66 4.3 -2 6 C-3.45922693 5.88590407 -4.91740598 5.75834456 -6.375 5.625 C-7.59316406 5.52058594 -7.59316406 5.52058594 -8.8359375 5.4140625 C-11 5 -11 5 -13 3 C-8.18191612 -0.61356291 -6.85805712 0 0 0 Z " fill="#8FBC86" transform="translate(247,330)"/>
<path d="M0 0 C0.66 0.99 1.32 1.98 2 3 C4.05925139 3.72382467 4.05925139 3.72382467 6 4 C6 4.66 6 5.32 6 6 C7.32 6.33 8.64 6.66 10 7 C10 7.66 10 8.32 10 9 C9.071875 8.5978125 9.071875 8.5978125 8.125 8.1875 C-4.01596214 3.57393439 -14.30627855 2.85465309 -27 6 C-27 5.01 -27 4.02 -27 3 C-20.53189015 2.05398393 -14.35049427 1.94392746 -7.828125 2.12695312 C-5.88517804 2.15633933 -3.94128358 2.08558347 -2 2 C-1.34 1.34 -0.68 0.68 0 0 Z " fill="#519351" transform="translate(261,137)"/>
<path d="M0 0 C2.96500944 4.44751416 4.13538706 9.35191953 5.6875 14.4375 C6.02072266 15.48744141 6.35394531 16.53738281 6.69726562 17.61914062 C7.00728516 18.63041016 7.31730469 19.64167969 7.63671875 20.68359375 C7.92248779 21.60712646 8.20825684 22.53065918 8.50268555 23.48217773 C9.0162724 26.08238454 8.8678903 27.52667557 8 30 C8 29.01 8 28.02 8 27 C7.34 27 6.68 27 6 27 C5.67 26.01 5.34 25.02 5 24 C4.34 23.34 3.68 22.68 3 22 C3.66 22 4.32 22 5 22 C4.67 20.68 4.34 19.36 4 18 C3.34 18.33 2.68 18.66 2 19 C2.20625 18.4534375 2.4125 17.906875 2.625 17.34375 C3.12770628 14.20183573 2.21782947 12.41638111 1 9.5 C-1.4084507 3.73239437 -1.4084507 3.73239437 0 0 Z " fill="#61776C" transform="translate(368,332)"/>
<path d="M0 0 C1.32 0 2.64 0 4 0 C5.65 3.3 7.3 6.6 9 10 C9.33 9.34 9.66 8.68 10 8 C10.66 8 11.32 8 12 8 C12 7.34 12 6.68 12 6 C12.66 6 13.32 6 14 6 C12.74433095 9.47723736 11.26656844 12.09382458 9 15 C7.49726004 12.68923915 5.99770448 10.37652089 4.5 8.0625 C4.07074219 7.40314453 3.64148438 6.74378906 3.19921875 6.06445312 C0 1.11328125 0 1.11328125 0 0 Z " fill="#4F904F" transform="translate(241,282)"/>
<path d="M0 0 C3.86715038 2.12246797 6.74405677 4.52746145 9.8125 7.6875 C10.60269531 8.49574219 11.39289063 9.30398437 12.20703125 10.13671875 C13.09455078 11.05904297 13.09455078 11.05904297 14 12 C13.34 12.66 12.68 13.32 12 14 C9.69 13.34 7.38 12.68 5 12 C4.855625 11.05125 4.71125 10.1025 4.5625 9.125 C4.17064601 6.1065506 4.17064601 6.1065506 3 4 C2.01 4 1.02 4 0 4 C0 2.68 0 1.36 0 0 Z " fill="#486358" transform="translate(299,112)"/>
<path d="M0 0 C-1.30838136 2.002807 -2.62142194 4.00226099 -3.9375 6 C-4.49727539 6.85851562 -4.49727539 6.85851562 -5.06835938 7.734375 C-6.01944589 9.17385729 -7.00694276 10.58914489 -8 12 C-8.33 12 -8.66 12 -9 12 C-9.29201904 7.03567635 -9.14707573 3.96298426 -6 0 C-3 -1 -3 -1 0 0 Z " fill="#456255" transform="translate(319,227)"/>
<path d="M0 0 C0.66 0.99 1.32 1.98 2 3 C1.34 3 0.68 3 0 3 C0 3.99 0 4.98 0 6 C0.66 6 1.32 6 2 6 C2 6.99 2 7.98 2 9 C7.28 9 12.56 9 18 9 C18.33 7.35 18.66 5.7 19 4 C20.125 7.75 20.125 7.75 19 10 C12.07 10 5.14 10 -2 10 C-1.34 6.7 -0.68 3.4 0 0 Z " fill="#83A777" transform="translate(152,345)"/>
<path d="M0 0 C0.99 0 1.98 0 3 0 C3 0.99 3 1.98 3 3 C4.32 3.33 5.64 3.66 7 4 C7.0825 4.94875 7.165 5.8975 7.25 6.875 C7.4975 7.90625 7.745 8.9375 8 10 C9.91666667 11.16666667 9.91666667 11.16666667 12 12 C13.25 14.125 13.25 14.125 14 16 C13.34 16.66 12.68 17.32 12 18 C9.99621864 15.19017627 7.99761621 12.37670932 6 9.5625 C5.42765625 8.76005859 4.8553125 7.95761719 4.265625 7.13085938 C3.72421875 6.36708984 3.1828125 5.60332031 2.625 4.81640625 C2.12226563 4.10943604 1.61953125 3.40246582 1.1015625 2.67407227 C0 1 0 1 0 0 Z " fill="#63786E" transform="translate(194,245)"/>
<path d="M0 0 C0.66 0 1.32 0 2 0 C2.66 2.97 3.32 5.94 4 9 C-2.93 9 -9.86 9 -17 9 C-12.60405194 6.80202597 -11.00732024 6.89926798 -6.25 7.375 C-5.07953125 7.48585938 -3.9090625 7.59671875 -2.703125 7.7109375 C-1.36507813 7.85402344 -1.36507813 7.85402344 0 8 C-0.185625 6.865625 -0.37125 5.73125 -0.5625 4.5625 C-0.706875 3.386875 -0.85125 2.21125 -1 1 C-0.67 0.67 -0.34 0.34 0 0 Z " fill="#6C9965" transform="translate(347,346)"/>
<path d="M0 0 C0.66 0 1.32 0 2 0 C2.33 0.99 2.66 1.98 3 3 C2.34 3.66 1.68 4.32 1 5 C0.28591666 6.98356483 -0.38617742 8.98315437 -1 11 C-2.65 10.67 -4.3 10.34 -6 10 C-4.63312778 6.01328937 -2.84804907 3.11505367 0 0 Z " fill="#1B4D34" transform="translate(291,237)"/>
<path d="M0 0 C3.17462943 2.40242227 5.85751741 4.61713276 8 8 C8 8.66 8 9.32 8 10 C8.99 10.33 9.98 10.66 11 11 C11.73046875 13.06640625 11.73046875 13.06640625 12.1875 15.5625 C12.34605469 16.38878906 12.50460937 17.21507812 12.66796875 18.06640625 C12.77753906 18.70449219 12.88710938 19.34257812 13 20 C10.41622399 17.58315333 8.94685467 15.08643744 7.25 11.984375 C4.93477127 8.30894939 1.94137176 5.18097789 -1 2 C-0.67 1.34 -0.34 0.68 0 0 Z " fill="#4F924F" transform="translate(274,146)"/>
<path d="M0 0 C0.99 0 1.98 0 3 0 C3 0.66 3 1.32 3 2 C3.66 2.33 4.32 2.66 5 3 C5.28875 3.66 5.5775 4.32 5.875 5 C6.8234856 7.20005805 6.8234856 7.20005805 9.125 7.75 C9.74375 7.8325 10.3625 7.915 11 8 C11 9.65 11 11.3 11 13 C11.99 13 12.98 13 14 13 C13.67 13.66 13.34 14.32 13 15 C11.296875 14.90625 11.296875 14.90625 9 14 C7.25926324 11.85578121 5.74908135 9.79989353 4.25 7.5 C3.83878906 6.89285156 3.42757812 6.28570312 3.00390625 5.66015625 C0 1.17924626 0 1.17924626 0 0 Z " fill="#519451" transform="translate(201,225)"/>
<path d="M0 0 C0.66 0.66 1.32 1.32 2 2 C1.34 2 0.68 2 0 2 C-0.10570312 2.71671875 -0.21140625 3.4334375 -0.3203125 4.171875 C-1.06893664 7.28683982 -2.22631357 9.51039171 -3.875 12.25 C-4.38804687 13.12140625 -4.90109375 13.9928125 -5.4296875 14.890625 C-7 17 -7 17 -10 18 C-7.69393467 11.50108862 -4.22578501 5.43315216 0 0 Z " fill="#1D522E" transform="translate(311,206)"/>
<path d="M0 0 C0.99 0.33 1.98 0.66 3 1 C1.24835819 4.50328362 -3.17823273 5.63803029 -6.6328125 7.2578125 C-10.50799347 9.1218236 -13.75044282 11.18454397 -17 14 C-17.66 13.67 -18.32 13.34 -19 13 C-16.47211993 10.20127563 -14.79588866 8.54226981 -11 8 C-11 7.34 -11 6.68 -11 6 C-9.73308493 5.32591692 -8.46129251 4.66099503 -7.1875 4 C-6.47980469 3.62875 -5.77210938 3.2575 -5.04296875 2.875 C-3 2 -3 2 0 2 C0 1.34 0 0.68 0 0 Z " fill="#194F2C" transform="translate(225,115)"/>
<path d="M0 0 C0.66 0.33 1.32 0.66 2 1 C0.75590105 2.92050226 -0.49553435 4.83625314 -1.75 6.75 C-2.44609375 7.81734375 -3.1421875 8.8846875 -3.859375 9.984375 C-5.73853132 12.63165361 -7.62795543 14.7989136 -10 17 C-9.74476126 15.37247769 -9.47025506 13.74796804 -9.1875 12.125 C-9.03667969 11.22007812 -8.88585937 10.31515625 -8.73046875 9.3828125 C-8 7 -8 7 -5 5 C-4.34 5.33 -3.68 5.66 -3 6 C-2.690625 5.195625 -2.38125 4.39125 -2.0625 3.5625 C-1 1 -1 1 0 0 Z " fill="#529452" transform="translate(306,212)"/>
<path d="M0 0 C1.66666667 0 3.33333333 0 5 0 C5 0.99 5 1.98 5 3 C3.77493102 3.65357278 2.54470484 4.29748233 1.3125 4.9375 C0.62800781 5.29714844 -0.05648438 5.65679687 -0.76171875 6.02734375 C-5.24743356 7.97663343 -9.46627099 8.11575526 -14.3125 8.0625 C-15.38113281 8.05347656 -16.44976562 8.04445312 -17.55078125 8.03515625 C-18.35902344 8.02355469 -19.16726562 8.01195312 -20 8 C-20 7.67 -20 7.34 -20 7 C-19.31035156 6.97421875 -18.62070313 6.9484375 -17.91015625 6.921875 C-11.16219932 6.51459091 -5.96924004 5.16885582 0 2 C0 1.34 0 0.68 0 0 Z " fill="#184E2C" transform="translate(265,209)"/>
<path d="M0 0 C0.66 0.33 1.32 0.66 2 1 C1.7525 1.7425 1.505 2.485 1.25 3.25 C1.1675 4.1575 1.085 5.065 1 6 C2.83358335 8.33454661 2.83358335 8.33454661 5 10 C0.76570244 8.68938409 -3.07407404 7.05643741 -7 5 C-4.81722366 2.81722366 -2.72872311 1.43257963 0 0 Z " fill="#1B4E32" transform="translate(279,112)"/>
<path d="M0 0 C2.3129482 2.3129482 2.49580975 3.47904875 3.125 6.625 C3.29257812 7.44226563 3.46015625 8.25953125 3.6328125 9.1015625 C3.81457031 10.04128906 3.81457031 10.04128906 4 11 C2.35 11 0.7 11 -1 11 C-2.60080151 6.99799622 -1.29279692 3.95443764 0 0 Z " fill="#446154" transform="translate(364,319)"/>
<path d="M0 0 C0.33 0.66 0.66 1.32 1 2 C1.66 2 2.32 2 3 2 C3.13277344 2.60328125 3.26554688 3.2065625 3.40234375 3.828125 C3.57894531 4.62734375 3.75554687 5.4265625 3.9375 6.25 C4.19853516 7.43335938 4.19853516 7.43335938 4.46484375 8.640625 C4.947556 10.76878703 5.46163178 12.88532842 6 15 C5.01 15.33 4.02 15.66 3 16 C2.49193553 14.27318563 1.99389533 12.54342021 1.5 10.8125 C1.08234375 9.36810547 1.08234375 9.36810547 0.65625 7.89453125 C0.03322392 5.14654124 -0.12302812 2.80401584 0 0 Z " fill="#556E63" transform="translate(168,190)"/>
<path d="M0 0 C0.99 0.33 1.98 0.66 3 1 C0.69 4.63 -1.62 8.26 -4 12 C-4.66 11.67 -5.32 11.34 -6 11 C-6 9.68 -6 8.36 -6 7 C-4.7934375 6.6596875 -4.7934375 6.6596875 -3.5625 6.3125 C-2.716875 5.879375 -1.87125 5.44625 -1 5 C-0.10613836 2.45224694 -0.10613836 2.45224694 0 0 Z " fill="#496458" transform="translate(292,260)"/>
<path d="M0 0 C2.59336185 1.29668093 2.90784262 2.54821551 4.1875 5.125 C6.75317486 9.92603828 9.96893955 13.38714755 14 17 C9.89342796 17 8.97212034 15.83388219 6 13 C0 5.28773585 0 5.28773585 0 0 Z " fill="#539452" transform="translate(214,192)"/>
<path d="M0 0 C0.66 0 1.32 0 2 0 C1.25 5.75 1.25 5.75 -1 8 C-2.03842565 10.31648799 -3.0421975 12.64903024 -4 15 C-4.33 15 -4.66 15 -5 15 C-4.88490339 13.58249437 -4.75746342 12.16598831 -4.625 10.75 C-4.55539063 9.96109375 -4.48578125 9.1721875 -4.4140625 8.359375 C-3.98492887 5.914123 -3.21399362 4.15163097 -2 2 C-1.67 2.33 -1.34 2.66 -1 3 C-0.67 2.01 -0.34 1.02 0 0 Z " fill="#4C6A5E" transform="translate(173,153)"/>
<path d="M0 0 C0.33 0 0.66 0 1 0 C2.512545 5.16044765 3.33500455 8.65998179 2 14 C1.34 14 0.68 14 0 14 C0 12.35 0 10.7 0 9 C-0.99 8.67 -1.98 8.34 -3 8 C-2.01 8 -1.02 8 0 8 C-0.185625 7.4225 -0.37125 6.845 -0.5625 6.25 C-1.04023546 3.79307475 -0.75729364 2.35602466 0 0 Z " fill="#596E64" transform="translate(382,378)"/>
<path d="M0 0 C0.66 0.33 1.32 0.66 2 1 C1.01 2.485 1.01 2.485 0 4 C0.33 4.99 0.66 5.98 1 7 C0.01 7.66 -0.98 8.32 -2 9 C-3.05104383 10.63495707 -4.05988318 12.29883624 -5 14 C-5.88336837 11.5332355 -6.1312406 10.36140628 -5.22265625 7.859375 C-4.83980469 7.16328125 -4.45695313 6.4671875 -4.0625 5.75 C-3.68222656 5.04359375 -3.30195313 4.3371875 -2.91015625 3.609375 C-2.60980469 3.07828125 -2.30945313 2.5471875 -2 2 C-1.34 2 -0.68 2 0 2 C0 1.34 0 0.68 0 0 Z " fill="#64786D" transform="translate(147,287)"/>
<path d="M0 0 C0.99 0 1.98 0 3 0 C1.63408831 3.54243452 0.09068516 6.92627929 -1.625 10.3125 C-2.07101563 11.19550781 -2.51703125 12.07851562 -2.9765625 12.98828125 C-3.31429687 13.65214844 -3.65203125 14.31601563 -4 15 C-4.66 13.68 -5.32 12.36 -6 11 C-5.34 11 -4.68 11 -4 11 C-4.33 9.68 -4.66 8.36 -5 7 C-4.01 6.67 -3.02 6.34 -2 6 C-0.77479736 2.99152582 -0.77479736 2.99152582 0 0 Z " fill="#1B512D" transform="translate(193,140)"/>
<path d="M0 0 C0.33 0.99 0.66 1.98 1 3 C1.99 3.33 2.98 3.66 4 4 C3.34 5.32 2.68 6.64 2 8 C1.01 8 0.02 8 -1 8 C-1 7.34 -1 6.68 -1 6 C-1.66 5.67 -2.32 5.34 -3 5 C-2.625 3.0625 -2.625 3.0625 -2 1 C-1.34 0.67 -0.68 0.34 0 0 Z " fill="#1C4535" transform="translate(204,111)"/>
<path d="M0 0 C0.99 0.33 1.98 0.66 3 1 C3 2.32 3 3.64 3 5 C2.34 5 1.68 5 1 5 C1.33 6.65 1.66 8.3 2 10 C1.34 10 0.68 10 0 10 C0 10.66 0 11.32 0 12 C-0.66 12 -1.32 12 -2 12 C-1.44687265 7.97007218 -0.8441938 3.97977076 0 0 Z " fill="#63965C" transform="translate(145,368)"/>
<path d="M0 0 C3.26845713 4.90268569 4.27944109 9.13173703 4 15 C1.46462994 12.01188529 0.45397176 9.65595871 -0.25 5.8125 C-0.50523437 4.49185547 -0.50523437 4.49185547 -0.765625 3.14453125 C-0.84296875 2.43683594 -0.9203125 1.72914063 -1 1 C-0.67 0.67 -0.34 0.34 0 0 Z " fill="#4F6459" transform="translate(368,332)"/>
<path d="M0 0 C-1 5 -2 10 -3 15 C-3.12375 14.360625 -3.2475 13.72125 -3.375 13.0625 C-3.58125 12.381875 -3.7875 11.70125 -4 11 C-4.66 10.67 -5.32 10.34 -6 10 C-5.67 9.01 -5.34 8.02 -5 7 C-4.01 7 -3.02 7 -2 7 C-2.27617533 5.05925139 -2.27617533 5.05925139 -3 3 C-3.99 2.34 -4.98 1.68 -6 1 C-3 0 -3 0 0 0 Z " fill="#7CAE75" transform="translate(177,330)"/>
<path d="M0 0 C1.32 0.99 2.64 1.98 4 3 C2.92598892 5.91517292 2.22189824 7.77810176 0 10 C-1.125 8.375 -1.125 8.375 -2 6 C-1.125 2.75 -1.125 2.75 0 0 Z " fill="#3D5F52" transform="translate(231,159)"/>
<path d="M0 0 C3.74007011 1.24669004 4.51247157 2.68513508 6.75 5.875 C7.70132813 7.20144531 7.70132813 7.20144531 8.671875 8.5546875 C9.11015625 9.36164063 9.5484375 10.16859375 10 11 C9.67 11.99 9.34 12.98 9 14 C3.64788732 7.8028169 3.64788732 7.8028169 2 4 C1.62875 3.2575 1.2575 2.515 0.875 1.75 C0.58625 1.1725 0.2975 0.595 0 0 Z " fill="#1A502D" transform="translate(221,256)"/>
<path d="M0 0 C2.12046792 3.53411321 2.53199289 6.94393835 3 11 C1.35 11.33 -0.3 11.66 -2 12 C-1.67 11.34 -1.34 10.68 -1 10 C-1 8.68 -1 7.36 -1 6 C-1 2 -1 2 0 0 Z " fill="#669E5F" transform="translate(337,308)"/>
<path d="M0 0 C-1.56462366 4.22448388 -4.41754984 6.40096753 -8 9 C-10.875 9.8125 -10.875 9.8125 -13 10 C-3.28571429 0 -3.28571429 0 0 0 Z " fill="#509451" transform="translate(280,204)"/>
<path d="M0 0 C0.33 0.66 0.66 1.32 1 2 C0.34 2 -0.32 2 -1 2 C-1 2.66 -1 3.32 -1 4 C-1.763125 4.268125 -2.52625 4.53625 -3.3125 4.8125 C-6.00407372 5.80853525 -6.00407372 5.80853525 -7.625 7.625 C-8.07875 8.07875 -8.5325 8.5325 -9 9 C-9.99 9 -10.98 9 -12 9 C-12 8.34 -12 7.68 -12 7 C-10.04775792 5.71593601 -8.03659238 4.52058322 -6 3.375 C-4.88625 2.74335937 -3.7725 2.11171875 -2.625 1.4609375 C-1.75875 0.97882813 -0.8925 0.49671875 0 0 Z " fill="#4D8F4E" transform="translate(222,119)"/>
<path d="M0 0 C0.66 0 1.32 0 2 0 C1.55088303 2.29349068 1.09042056 4.58476218 0.625 6.875 C0.36976563 8.15117187 0.11453125 9.42734375 -0.1484375 10.7421875 C-1 14 -1 14 -3 16 C-2.69262339 13.52009745 -2.37935917 11.04119265 -2.0625 8.5625 C-1.97548828 7.85544922 -1.88847656 7.14839844 -1.79882812 6.41992188 C-1.11328125 1.11328125 -1.11328125 1.11328125 0 0 Z " fill="#667A6E" transform="translate(147,328)"/>
<path d="M0 0 C0.66 0.99 1.32 1.98 2 3 C2.99 3.33 3.98 3.66 5 4 C4.01 4.33 3.02 4.66 2 5 C1.835 5.66 1.67 6.32 1.5 7 C1.335 7.66 1.17 8.32 1 9 C0.01 9.33 -0.98 9.66 -2 10 C-1.34 6.7 -0.68 3.4 0 0 Z " fill="#3F5C4E" transform="translate(137,312)"/>
<path d="M0 0 C3.66786393 1.50349377 5.68910393 3.63728792 8.25 6.625 C8.95640625 7.44226563 9.6628125 8.25953125 10.390625 9.1015625 C10.92171875 9.72804687 11.4528125 10.35453125 12 11 C11.67 11.66 11.34 12.32 11 13 C10.46890625 12.38511719 9.9378125 11.77023438 9.390625 11.13671875 C8.68421875 10.32847656 7.9778125 9.52023438 7.25 8.6875 C6.55390625 7.88699219 5.8578125 7.08648437 5.140625 6.26171875 C3.20854665 4.22034399 1.30056874 2.60107149 -1 1 C-0.67 0.67 -0.34 0.34 0 0 Z " fill="#519154" transform="translate(292,129)"/>
<path d="M0 0 C0.99 0.33 1.98 0.66 3 1 C1.515 7.435 1.515 7.435 0 14 C-2 11 -2 11 -1.7578125 9.0625 C-1.54898438 8.381875 -1.34015625 7.70125 -1.125 7 C-0.35541784 4.42823176 0 2.73570583 0 0 Z " fill="#677B70" transform="translate(137,359)"/>
<path d="M0 0 C2.475 0.495 2.475 0.495 5 1 C5.33 1.99 5.66 2.98 6 4 C4.625 5.5 4.625 5.5 3 7 C2.34 7 1.68 7 1 7 C0.67 4.69 0.34 2.38 0 0 Z " fill="#488E40" transform="translate(239,360)"/>
<path d="M0 0 C0.33 0.99 0.66 1.98 1 3 C0.01 3.33 -0.98 3.66 -2 4 C-1.67 4.99 -1.34 5.98 -1 7 C-2.98 6.34 -4.96 5.68 -7 5 C-7 4.34 -7 3.68 -7 3 C-4.69 2.01 -2.38 1.02 0 0 Z " fill="#639C56" transform="translate(270,322)"/>
<path d="M0 0 C1 2 1 2 0.4375 4.3125 C-1.47539467 7.88878134 -3.78248866 9.55189355 -7 12 C-5.44298069 7.32894208 -2.91552627 3.91294315 0 0 Z " fill="#1A4E2E" transform="translate(278,255)"/>
<path d="M0 0 C0.28875 0.639375 0.5775 1.27875 0.875 1.9375 C1.82823451 4.15206079 1.82823451 4.15206079 4 5 C2.9171875 5.12375 2.9171875 5.12375 1.8125 5.25 C-1.55313254 6.14750201 -3.41612816 7.7114278 -6 10 C-4.6302836 6.00499382 -2.74277578 3.19990508 0 0 Z " fill="#1A4E31" transform="translate(300,224)"/>
<path d="M0 0 C0 0.99 0 1.98 0 3 C-4.84520419 4.29205445 -10.02040564 4.51999304 -15 4 C-15.66 3.34 -16.32 2.68 -17 2 C-8.585 1.01 -8.585 1.01 0 0 Z " fill="#47884A" transform="translate(262,215)"/>
<path d="M0 0 C0.33 0 0.66 0 1 0 C1.66 4.29 2.32 8.58 3 13 C2.01 13.33 1.02 13.66 0 14 C-2.05459372 8.40693931 -2.05459372 5.59306069 0 0 Z " fill="#53695F" transform="translate(228,175)"/>
<path d="M0 0 C0.33 0.66 0.66 1.32 1 2 C1.99 1.67 2.98 1.34 4 1 C4 1.66 4 2.32 4 3 C4.66 3.33 5.32 3.66 6 4 C5.34 4 4.68 4 4 4 C4.33 4.99 4.66 5.98 5 7 C4.67 7.66 4.34 8.32 4 9 C3.34 9 2.68 9 2 9 C1.34 6.03 0.68 3.06 0 0 Z " fill="#546D60" transform="translate(360,359)"/>
<path d="M0 0 C0.33 0 0.66 0 1 0 C1.33 2.97 1.66 5.94 2 9 C-0.475 10.485 -0.475 10.485 -3 12 C-2.01 8.04 -1.02 4.08 0 0 Z " fill="#5A7265" transform="translate(133,325)"/>
<path d="M0 0 C0.66 0 1.32 0 2 0 C2.75 3.25 2.75 3.25 3 7 C1.0625 9.4375 1.0625 9.4375 -1 11 C-1.66 10.34 -2.32 9.68 -3 9 C-2.34 8.67 -1.68 8.34 -1 8 C-1 7.01 -1 6.02 -1 5 C-0.68911632 3.32900023 -0.35919668 1.66128463 0 0 Z " fill="#3C5D4E" transform="translate(283,268)"/>
<path d="M0 0 C0.66 0 1.32 0 2 0 C2 0.66 2 1.32 2 2 C2.99 2.33 3.98 2.66 5 3 C-0.75 6 -0.75 6 -3 6 C-3.33 4.35 -3.66 2.7 -4 1 C-2.68 1.33 -1.36 1.66 0 2 C0 1.34 0 0.68 0 0 Z " fill="#4D685E" transform="translate(240,155)"/>
<path d="M0 0 C0.99 0.33 1.98 0.66 3 1 C2.34 2.65 1.68 4.3 1 6 C-1.31 6 -3.62 6 -6 6 C-5.67 5.34 -5.34 4.68 -5 4 C-4.01 4 -3.02 4 -2 4 C-2 3.34 -2 2.68 -2 2 C-1.34 2 -0.68 2 0 2 C0 1.34 0 0.68 0 0 Z " fill="#6B9E67" transform="translate(272,352)"/>
<path d="M0 0 C0.33 0 0.66 0 1 0 C1 3.3 1 6.6 1 10 C-1.64 10.33 -4.28 10.66 -7 11 C-7.33 10.34 -7.66 9.68 -8 9 C-4.63458162 7.91825838 -3.70152678 8.07461831 0 9 C0 6.03 0 3.06 0 0 Z " fill="#437F3B" transform="translate(245,314)"/>
<path d="M0 0 C0.66 0.33 1.32 0.66 2 1 C0.88200014 2.33920838 -0.24461897 3.67122556 -1.375 5 C-2.00148438 5.7425 -2.62796875 6.485 -3.2734375 7.25 C-4.12808594 8.11625 -4.12808594 8.11625 -5 9 C-5.66 9 -6.32 9 -7 9 C-5.44499019 5.18315774 -2.96404505 2.80804268 0 0 Z " fill="#184D2C" transform="translate(262,303)"/>
<path d="M0 0 C2.31 0.66 4.62 1.32 7 2 C6.67 2.99 6.34 3.98 6 5 C1.71 4.34 -2.58 3.68 -7 3 C-7 2.67 -7 2.34 -7 2 C-4.69 2 -2.38 2 0 2 C0 1.34 0 0.68 0 0 Z " fill="#667C70" transform="translate(254,154)"/>
<path d="M0 0 C3.875 1.75 3.875 1.75 5 4 C4.71758117 6.3400417 4.38749213 8.67504723 4 11 C2 7.25 2 7.25 2 5 C0.54166642 3.37485532 0.54166642 3.37485532 -1 2 C-0.67 1.34 -0.34 0.68 0 0 Z " fill="#1E4434" transform="translate(129,371)"/>
<path d="M0 0 C3.96 0 7.92 0 12 0 C12 0.33 12 0.66 12 1 C10.1746875 1.12375 10.1746875 1.12375 8.3125 1.25 C4.21534129 1.73758372 1.99860092 3.09510536 -1 6 C-0.67 4.02 -0.34 2.04 0 0 Z " fill="#5E9055" transform="translate(147,362)"/>
<path d="M0 0 C-1 3 -1 3 -3 5 C-4.32 4.34 -5.64 3.68 -7 3 C-6.67 2.01 -6.34 1.02 -6 0 C-3.50907189 -1.24546405 -2.58919267 -0.7767578 0 0 Z " fill="#4A8C40" transform="translate(319,340)"/>
<path d="M0 0 C2.38672669 2.96283313 4.7353371 5.94270509 7 9 C6.67 9.66 6.34 10.32 6 11 C5.01 11.33 4.02 11.66 3 12 C3.020625 11.236875 3.04125 10.47375 3.0625 9.6875 C3.12942841 6.89814214 3.12942841 6.89814214 2 4 C1.34 4 0.68 4 0 4 C0 2.68 0 1.36 0 0 Z " fill="#194F2E" transform="translate(207,234)"/>
<path d="M0 0 C0.66 0 1.32 0 2 0 C1.49287967 3.71888239 0.88391785 6.73454239 -1 10 C-3 6.25 -3 6.25 -3 4 C-2.34 4 -1.68 4 -1 4 C-0.67 2.68 -0.34 1.36 0 0 Z " fill="#50924E" transform="translate(311,198)"/>
<path d="M0 0 C0.33 1.32 0.66 2.64 1 4 C-1.75 5.125 -1.75 5.125 -5 6 C-6.32 5.34 -7.64 4.68 -9 4 C-6.03 2.68 -3.06 1.36 0 0 Z " fill="#61786F" transform="translate(262,196)"/>
<path d="M0 0 C0 3.61207397 -1.1151038 4.98416608 -3 8 C-3.33 8.99 -3.66 9.98 -4 11 C-4.99 10.67 -5.98 10.34 -7 10 C-5.33248852 6.05860922 -2.77289351 3.2107188 0 0 Z " fill="#53964F" transform="translate(202,134)"/>
<path d="M0 0 C2.4375 0.75 2.4375 0.75 5 2 C5.8125 4.125 5.8125 4.125 6 6 C4.35 5.67 2.7 5.34 1 5 C0.67 3.35 0.34 1.7 0 0 Z " fill="#54984E" transform="translate(280,121)"/>
<path d="M0 0 C1.98 0.66 3.96 1.32 6 2 C6 2.66 6 3.32 6 4 C7.32 3.67 8.64 3.34 10 3 C10.99 4.485 10.99 4.485 12 6 C4 5.07692308 4 5.07692308 1 3 C0.67 2.01 0.34 1.02 0 0 Z " fill="#7CA471" transform="translate(234,350)"/>
<path d="M0 0 C2.475 0.99 2.475 0.99 5 2 C5 1.34 5 0.68 5 0 C5.66 0.33 6.32 0.66 7 1 C5.6875 3.5 5.6875 3.5 4 6 C3.01 6 2.02 6 1 6 C0.67 4.02 0.34 2.04 0 0 Z " fill="#4A883F" transform="translate(329,348)"/>
<path d="M0 0 C0.61875 0.33 1.2375 0.66 1.875 1 C3.91018344 2.14193235 3.91018344 2.14193235 6 2 C5.67 2.99 5.34 3.98 5 5 C2.4375 6.1875 2.4375 6.1875 0 7 C-1.33332095 4.3333581 -0.67102033 2.83319697 0 0 Z " fill="#6AA462" transform="translate(184,327)"/>
<path d="M0 0 C0.99 0 1.98 0 3 0 C2.979375 0.804375 2.95875 1.60875 2.9375 2.4375 C2.70366379 4.93354885 2.70366379 4.93354885 4 6 C4.14115161 8.67058851 4.04247107 11.32432238 4 14 C3.67 14 3.34 14 3 14 C2.01 9.38 1.02 4.76 0 0 Z " fill="#61786C" transform="translate(347,314)"/>
<path d="M0 0 C0.33 0.66 0.66 1.32 1 2 C1.66 2.33 2.32 2.66 3 3 C5.125 4.9375 5.125 4.9375 7 7 C7 7.66 7 8.32 7 9 C3.85972637 8.66354211 2.94901705 7.94763914 0.6875 5.625 C0.130625 4.75875 -0.42625 3.8925 -1 3 C-0.67 2.01 -0.34 1.02 0 0 Z " fill="#194E2C" transform="translate(238,302)"/>
<path d="M0 0 C0.66 0.33 1.32 0.66 2 1 C-0.64 4.3 -3.28 7.6 -6 11 C-6.66 10.34 -7.32 9.68 -8 9 C-7.38125 8.773125 -6.7625 8.54625 -6.125 8.3125 C-3.36681217 6.6089134 -3.05034149 5.00097569 -2 2 C-1.34 1.34 -0.68 0.68 0 0 Z " fill="#195029" transform="translate(282,196)"/>
<path d="M0 0 C2.79872437 2.52788007 4.45773019 4.20411134 5 8 C2.13275314 7.42655063 1.1385485 7.1385485 -1 5 C-0.625 2.375 -0.625 2.375 0 0 Z " fill="#4E914F" transform="translate(306,145)"/>
<path d="M0 0 C4.85077588 1.11940982 7.777893 2.1334716 11 6 C10.67 6.66 10.34 7.32 10 8 C8.33055479 6.85821872 6.6645052 5.71147095 5 4.5625 C4.071875 3.92441406 3.14375 3.28632812 2.1875 2.62890625 C1.465625 2.09136719 0.74375 1.55382812 0 1 C0 0.67 0 0.34 0 0 Z " fill="#1C532D" transform="translate(284,122)"/>
<path d="M0 0 C3.87132028 0.57352893 6.08172796 2.48704352 9 5 C6.75 5.75 6.75 5.75 4 6 C1.6875 4.1875 1.6875 4.1875 0 2 C0 1.34 0 0.68 0 0 Z " fill="#70A067" transform="translate(225,352)"/>
<path d="M0 0 C2.475 0.99 2.475 0.99 5 2 C5 2.99 5 3.98 5 5 C3.68 4.67 2.36 4.34 1 4 C0.67 4.66 0.34 5.32 0 6 C-0.66 4.68 -1.32 3.36 -2 2 C-1.34 2 -0.68 2 0 2 C0 1.34 0 0.68 0 0 Z " fill="#365A4B" transform="translate(218,274)"/>
<path d="M0 0 C0.99 0.33 1.98 0.66 3 1 C3.73046875 3.06640625 3.73046875 3.06640625 4.1875 5.5625 C4.34605469 6.38878906 4.50460937 7.21507812 4.66796875 8.06640625 C4.77753906 8.70449219 4.88710938 9.34257812 5 10 C4.01 10.495 4.01 10.495 3 11 C2.01 7.37 1.02 3.74 0 0 Z " fill="#586B60" transform="translate(356,346)"/>
<path d="M0 0 C0.33 0 0.66 0 1 0 C1 2.97 1 5.94 1 9 C0.34 9 -0.32 9 -1 9 C-1.66 10.32 -2.32 11.64 -3 13 C-3.33 11.68 -3.66 10.36 -4 9 C-2.68 8.67 -1.36 8.34 0 8 C0 5.36 0 2.72 0 0 Z " fill="#7CA373" transform="translate(270,338)"/>
<path d="M0 0 C3 0 3 0 6 1 C4.37660195 2.70884005 2.70680947 4.37446717 1 6 C0.34 6 -0.32 6 -1 6 C-0.67 4.02 -0.34 2.04 0 0 Z " fill="#547466" transform="translate(129,338)"/>
<path d="M0 0 C3.99455527 0.61454696 6.74466336 2.70646737 10 5 C8.68 5.33 7.36 5.66 6 6 C6 5.34 6 4.68 6 4 C4.68 3.67 3.36 3.34 2 3 C2 2.34 2 1.68 2 1 C1.34 0.67 0.68 0.34 0 0 Z " fill="#85AB7F" transform="translate(259,330)"/>
<path d="M0 0 C1.65 0 3.3 0 5 0 C3.68 0.33 2.36 0.66 1 1 C0.87625 1.78375 0.7525 2.5675 0.625 3.375 C0 6 0 6 -2 8 C-2.33 6.02 -2.66 4.04 -3 2 C-2.34 2 -1.68 2 -1 2 C-0.67 1.34 -0.34 0.68 0 0 Z " fill="#639C5A" transform="translate(165,306)"/>
<path d="M0 0 C0.8353125 0.37125 0.8353125 0.37125 1.6875 0.75 C-0.5625 2.8125 -0.5625 2.8125 -3.3125 4.75 C-5.625 4.5 -5.625 4.5 -7.3125 3.75 C-2.88173077 -0.31153846 -2.88173077 -0.31153846 0 0 Z " fill="#1B4F2E" transform="translate(231.3125,146.25)"/>
<path d="M0 0 C0.556875 0.226875 1.11375 0.45375 1.6875 0.6875 C1.3575 1.3475 1.0275 2.0075 0.6875 2.6875 C-0.6325 2.6875 -1.9525 2.6875 -3.3125 2.6875 C-3.3125 3.3475 -3.3125 4.0075 -3.3125 4.6875 C-2.6525 5.0175 -1.9925 5.3475 -1.3125 5.6875 C-2.3025 5.6875 -3.2925 5.6875 -4.3125 5.6875 C-4.6425 5.0275 -4.9725 4.3675 -5.3125 3.6875 C-5.9725 3.3575 -6.6325 3.0275 -7.3125 2.6875 C-2.88173077 -0.38942308 -2.88173077 -0.38942308 0 0 Z " fill="#456458" transform="translate(209.3125,108.3125)"/>
<path d="M0 0 C0.66 0.33 1.32 0.66 2 1 C1.34 3.97 0.68 6.94 0 10 C-0.66 10 -1.32 10 -2 10 C-1.34 6.7 -0.68 3.4 0 0 Z " fill="#435A4D" transform="translate(141,347)"/>
<path d="M0 0 C0.33 0.66 0.66 1.32 1 2 C2.32 1.67 3.64 1.34 5 1 C4.34 2.98 3.68 4.96 3 7 C2.34 7 1.68 7 1 7 C0.67 4.69 0.34 2.38 0 0 Z " fill="#488D3D" transform="translate(162,312)"/>
<path d="M0 0 C0.66 0.33 1.32 0.66 2 1 C2.73075648 3.3140622 3.40138258 5.64828869 4 8 C3.34 8.66 2.68 9.32 2 10 C1.01 7.03 0.02 4.06 -1 1 C-0.67 0.67 -0.34 0.34 0 0 Z " fill="#556A5F" transform="translate(342,296)"/>
<path d="M0 0 C0.66 0.33 1.32 0.66 2 1 C2 2.32 2 3.64 2 5 C2.33 5.99 2.66 6.98 3 8 C2.34 8 1.68 8 1 8 C1 7.34 1 6.68 1 6 C0.34 6 -0.32 6 -1 6 C-1.66 4.35 -2.32 2.7 -3 1 C-2.01 1.33 -1.02 1.66 0 2 C0 1.34 0 0.68 0 0 Z " fill="#71877B" transform="translate(120,392)"/>
<path d="M0 0 C1.98 0.495 1.98 0.495 4 1 C3.34 2.32 2.68 3.64 2 5 C1.01 4.67 0.02 4.34 -1 4 C-0.67 2.68 -0.34 1.36 0 0 Z M-3 4 C-2.34 4 -1.68 4 -1 4 C-1.33 4.66 -1.66 5.32 -2 6 C-2.33 5.34 -2.66 4.68 -3 4 Z " fill="#285341" transform="translate(276,282)"/>
<path d="M0 0 C0.66 0.33 1.32 0.66 2 1 C2 2.98 2 4.96 2 7 C1.01 7 0.02 7 -1 7 C-1 3 -1 3 0 0 Z " fill="#2A4E3F" transform="translate(235,155)"/>
<path d="M0 0 C2 2 2 2 2 5 C0.35 5.33 -1.3 5.66 -3 6 C-2.42655063 3.13275314 -2.1385485 2.1385485 0 0 Z " fill="#46873C" transform="translate(149,365)"/>
<path d="M0 0 C0.33 0.66 0.66 1.32 1 2 C1.99 1.67 2.98 1.34 4 1 C3 4 2 7 1 10 C-0.60725635 6.78548731 -0.05748185 3.56387464 0 0 Z " fill="#78AA70" transform="translate(328,343)"/>
<path d="M0 0 C2.475 0.495 2.475 0.495 5 1 C5.625 2.875 5.625 2.875 6 5 C5.34 5.66 4.68 6.32 4 7 C3.34 5.35 2.68 3.7 2 2 C1.34 2 0.68 2 0 2 C0 1.34 0 0.68 0 0 Z " fill="#597266" transform="translate(184,230)"/>
<path d="M0 0 C0.33 0.66 0.66 1.32 1 2 C0.67 2.66 0.34 3.32 0 4 C0.66 4.33 1.32 4.66 2 5 C-1 6 -1 6 -3.1875 5.0625 C-3.785625 4.711875 -4.38375 4.36125 -5 4 C-3.74458443 1.48916886 -2.49936512 1.12874554 0 0 Z " fill="#184B32" transform="translate(238,209)"/>
<path d="M0 0 C3.53586014 3.17320782 5.58578031 5.16743695 6 10 C3.66475218 7.74259377 1.81294927 5.7194239 0 3 C0 2.01 0 1.02 0 0 Z " fill="#1B5229" transform="translate(216,193)"/>
<path d="M0 0 C0.66 0 1.32 0 2 0 C2 1.98 2 3.96 2 6 C0.68 6.33 -0.64 6.66 -2 7 C-1.34 4.69 -0.68 2.38 0 0 Z " fill="#4E8D4E" transform="translate(287,186)"/>
<path d="M0 0 C0.66 0.99 1.32 1.98 2 3 C1.34 3 0.68 3 0 3 C0 3.99 0 4.98 0 6 C0.66 6 1.32 6 2 6 C2 6.99 2 7.98 2 9 C1.01 9 0.02 9 -1 9 C-1.125 2.25 -1.125 2.25 0 0 Z " fill="#679C63" transform="translate(152,345)"/>
<path d="M0 0 C1.67542976 0.28604898 3.34385343 0.61781233 5 1 C4.67 1.99 4.34 2.98 4 4 C1.9375 4.6875 1.9375 4.6875 0 5 C-0.5625 3.0625 -0.5625 3.0625 -1 1 C-0.67 0.67 -0.34 0.34 0 0 Z " fill="#53914D" transform="translate(233,346)"/>
<path d="M0 0 C0.33 0.99 0.66 1.98 1 3 C1.66 3.33 2.32 3.66 3 4 C2.67 4.99 2.34 5.98 2 7 C1.01 7 0.02 7 -1 7 C-0.67 4.69 -0.34 2.38 0 0 Z M3 1 C3.99 1.495 3.99 1.495 5 2 C4.01 2.495 4.01 2.495 3 3 C3 2.34 3 1.68 3 1 Z " fill="#78A96D" transform="translate(182,334)"/>
<path d="M0 0 C0.33 0 0.66 0 1 0 C1 1.65 1 3.3 1 5 C-0.32 5.33 -1.64 5.66 -3 6 C-2.42655063 3.13275314 -2.1385485 2.1385485 0 0 Z " fill="#214132" transform="translate(152,310)"/>
<path d="M0 0 C1.98 0.495 1.98 0.495 4 1 C2.25 5.875 2.25 5.875 0 7 C-0.33 5.68 -0.66 4.36 -1 3 C-0.34 2.67 0.32 2.34 1 2 C0.67 1.34 0.34 0.68 0 0 Z " fill="#61776C" transform="translate(299,248)"/>
<path d="M0 0 C2.29013653 3.4352048 2.17842973 4.985331 2 9 C0.4375 7.875 0.4375 7.875 -1 6 C-0.6875 2.8125 -0.6875 2.8125 0 0 Z " fill="#203C31" transform="translate(329,158)"/>
<path d="M0 0 C0.66 0 1.32 0 2 0 C3.625 2 3.625 2 5 4 C4.01 5.485 4.01 5.485 3 7 C0 3.375 0 3.375 0 0 Z M3 1 C5 2 5 2 5 2 Z " fill="#1A4D2C" transform="translate(306,142)"/>
<path d="M0 0 C1.98 0.99 1.98 0.99 4 2 C5.3242287 2.36784131 6.65613912 2.71202981 8 3 C7.34 4.32 6.68 5.64 6 7 C4.02 4.69 2.04 2.38 0 0 Z " fill="#184B2E" transform="translate(295,130)"/>
</svg>
